<svg>
  <symbol width="215" height="200" viewBox="-0.628 -0.612 512 438" id="fish-logo">
    <g id="g2414"><path
      d="M 481.4157,117.6817 C 481.4157,121.00958 481.42175,123.65406 481.89717,126.34806 C 481.42175,131.26067 480.32402,137.29408 479.21472,143.47443 C 477.63002,149.1794 475.37456,154.6147 472.68056,159.84422 C 470.46197,163.64754 467.80869,167.4255 465.11469,170.43644 C 460.83597,175.03209 456.36085,179.28878 451.28979,183.09207 C 446.85261,186.89759 441.82722,190.26067 436.91464,193.27161 C 431.68511,196.75796 425.46624,199.76725 419.44436,202.14431 C 414.84873,204.36292 409.97574,206.26234 404.58774,207.37164 C 398.56584,209.27328 392.0328,210.36222 385.53551,211.15457 C 380.93986,211.62998 376.35412,211.95298 371.91695,211.63603 C 370.33222,211.63603 369.55144,210.81947 369.2345,209.71018 C 369.23448,208.44241 369.19874,207.82009 369.99109,207.02773 C 371.10038,205.44303 372.22508,204.0311 373.01744,202.76333 L 398.05358,172.84376 L 305.6812,180.40963 C 298.39156,181.20198 291.23617,181.23775 283.94653,179.65304 C 277.92467,178.86071 272.24997,177.39484 266.54503,174.70084 C 260.04771,171.6899 252.4439,167.91192 245.15425,164.10862 L 216.74786,240.45512 C 208.03195,242.83215 198.84564,245.39577 190.12975,248.08977 C 192.0314,247.29741 182.55343,250.79367 172.72826,254.28002 C 162.42767,258.08332 155.46927,261.06289 148.65504,264.39077 C 135.34351,270.88807 122.47163,278.20798 109.79398,286.60692 C 103.45516,290.72715 96.497314,295.63589 89.366139,300.70694 C 85.087434,304.03485 80.522601,307.84582 75.610014,312.12453 L 61.441205,325.74309 C 54.310008,332.55733 47.501848,340.61291 42.113849,348.85338 C 44.807849,349.64576 47.556873,350.46835 50.092402,351.2607 C 50.884755,351.57762 51.988546,352.04425 53.256311,352.36119 C 59.595133,354.26282 64.178124,355.38479 68.456829,356.96949 C 71.467747,358.07881 74.45615,359.16167 77.467091,360.27096 C 84.439795,363.44035 91.260082,365.97425 97.757375,369.14367 C 100.2929,370.25298 102.97315,371.41068 105.66715,372.99538 C 106.77642,373.62928 108.40957,374.40401 109.51886,375.19636 C 109.51886,375.67179 109.79398,375.63601 109.79398,375.95295 C 109.79398,375.95295 110.27545,376.3029 110.27545,376.77831 C 110.59239,377.09528 110.61935,377.5349 110.61935,377.5349 C 110.61935,378.6442 109.80884,379.48772 109.17496,379.80466 C 104.57931,380.91396 99.670577,381.6887 95.074931,382.00564 C 87.785285,383.27341 80.979855,384.68534 74.165621,386.27004 C 67.192916,387.69628 60.372629,390.10415 53.875336,392.32274 C 49.438161,393.43205 44.350045,395.27755 39.912869,396.86226 C 35.634164,398.44696 31.541992,399.8798 27.738699,400.98909 C 26.629427,401.46448 25.812841,401.7787 25.812841,402.57105 C 25.812841,403.36338 26.59639,403.67154 26.913331,403.67154 C 27.230294,403.67152 27.257234,403.67154 27.257234,403.67154 L 129.32768,410.96229 C 130.43698,410.96231 131.51986,411.30619 132.62915,411.30619 C 134.5308,411.30619 136.4363,410.96229 138.33794,410.96229 C 144.83521,410.16995 150.99743,408.61439 156.70237,406.07886 C 164.30896,402.59251 170.83321,398.03373 176.85509,392.8042 C 182.24311,387.41622 187.11001,381.97483 191.23024,375.95295 C 195.03356,370.24801 197.7468,364.0649 199.96538,357.72608 C 202.34244,352.02114 203.78133,345.54201 204.57369,339.36165 C 205.36604,334.44905 205.67418,329.23219 205.67418,324.16114 C 231.02947,321.94255 255.78609,318.91235 280.5075,315.426 C 317.90653,308.9287 354.77186,296.1168 389.31844,277.73422 C 398.8267,272.82163 408.39599,267.9217 417.58728,262.5337 C 423.60916,259.20582 430.41734,254.92821 436.91464,250.01562 C 442.61958,245.41998 447.95915,240.95089 452.87174,236.67218 C 458.25974,231.75962 463.48267,226.07006 468.55372,219.88971 C 477.58657,208.95524 484.10475,195.9579 488.22498,181.85402 C 489.80969,175.51518 490.89862,168.997 492.00792,162.18276 C 492.00792,159.80571 492.48938,157.58602 492.48938,154.89202 C 492.48938,151.88108 492.04974,148.41123 491.73279,145.40029 C 490.62352,139.21996 488.99918,133.49739 486.78059,127.79245 C 485.19591,124.46457 483.31735,121.00958 481.4157,117.6817 z M 103.12226,310.33623 C 110.25344,310.33623 121.01861,316.39005 121.01861,323.67967 C 121.01861,331.12779 110.25344,337.02311 103.12226,337.02311 C 95.991089,337.02311 88.06089,331.12781 88.060912,323.67967 C 88.060912,316.39003 95.991089,310.33625 103.12226,310.33623 z"
      id="path16" /><path
      d="M 387.12902,364.87982 C 348.93762,387.38264 306.78445,402.27887 262.57116,408.77616 L 231.82788,411.31169 L 200.4507,413.21334 L 167.33036,412.8964 C 176.04624,407.5084 183.96977,401.16958 190.94247,393.87993 L 197.7567,385.9564 C 203.46165,378.66676 208.05729,371.06017 211.06823,362.66123 C 212.49447,357.27323 213.76223,352.36064 214.87153,347.13111 L 216.77317,334.92888 L 249.73505,331.44253 L 275.56575,328.11465 L 292.99751,325.42065 C 302.98116,323.519 312.80633,320.825 322.78998,317.81406 L 354.64256,306.40418 L 379.36397,295.31124 L 404.56079,282.79207 L 428.1729,269.79748 L 446.71395,257.27831 L 470.32607,235.2509 L 487.9163,211.16337 L 486.80701,220.35467 C 482.21136,249.98866 471.11842,278.51336 454.79595,304.02712 C 443.70301,321.61735 429.59913,336.35512 413.27667,347.765 L 404.56079,353.94535 L 387.12902,364.87982 z"
      id="path20" /><path
      d="M 449.24948,76.463398 C 441.95764,71.23387 434.35325,66.638223 425.95431,62.83493 L 289.35269,6.1024695 L 287.1341,4.9931756 C 286.65869,4.9931756 286.34175,4.6762345 285.86634,4.6762345 C 285.5494,4.6762345 284.75704,4.9931756 284.4401,5.4685873 C 283.64775,6.1024695 283.64775,6.8948223 283.64775,7.6871751 C 283.64775,8.4795279 283.64775,9.2718807 284.4401,9.5888218 L 322.47304,59.031637 L 330.87198,70.441517 C 332.77362,74.24481 333.56597,78.048104 333.88292,81.851397 C 333.88292,82.326809 333.88292,82.64375 333.88292,82.960691 C 333.88292,86.447043 333.09056,90.250337 331.98127,93.736689 L 327.86103,102.45257 L 324.05774,108.15751 C 332.29821,106.5728 339.9048,105.14657 347.9868,103.87881 C 358.28738,101.97716 369.22185,100.55092 380.63173,100.07551 C 390.13996,99.75857 399.01432,99.441629 408.04714,99.441629 C 414.86137,99.75857 422.46796,100.07551 430.07455,100.86786 C 435.1456,101.66022 439.58278,102.45257 444.17843,103.56186 C 447.66478,104.67116 451.15113,106.5728 454.16207,108.47445 C 459.07466,111.9608 462.87795,116.55645 465.09654,121.78598 C 466.99819,126.06468 468.26595,130.97727 468.58289,135.57292 C 470.1676,131.29421 470.80148,127.17398 470.80148,122.57833 C 470.80148,121.78598 470.80148,121.46904 470.80148,120.67668 C 470.48454,114.97174 469.69219,109.58375 468.26595,103.87881 C 465.88889,97.856924 462.87795,92.151984 459.3916,87.239396 C 456.38066,83.436103 453.05278,79.94975 449.56642,76.93881 C 449.56642,76.463398 449.24948,76.463398 449.24948,76.463398 z"
      id="path22" /><path
      d="M 349.09609,397.52475 C 356.22726,394.51381 363.0415,391.18593 369.53879,387.38264 C 370.33114,387.69958 371.44044,387.69958 372.23279,387.69958 C 376.82844,387.69958 381.42408,387.38264 385.86126,386.59028 C 399.17279,385.48099 412.48431,383.57934 425.4789,381.20229 C 411.37502,390.71052 398.06349,401.01111 385.86126,412.10404 C 375.24373,421.13687 365.7355,431.12051 356.22726,440.78722 C 353.53327,440.78722 351.31468,439.99486 349.41303,439.36098 C 341.01409,435.55769 333.4075,431.43745 325.80092,426.84181 C 318.51127,422.72157 312.17245,417.80898 306.78445,412.10404 C 310.90468,410.51934 315.18339,409.0931 319.30362,407.82534 C 329.60421,405.28981 339.42939,401.80346 349.09609,397.52475 z"
      id="path24" /></g>
  </symbol>
</svg>